<?xml version="1.0" standalone="no"?>
<!DOCTYPE svg PUBLIC "-//W3C//DTD SVG 20010904//EN"
 "http://www.w3.org/TR/2001/REC-SVG-20010904/DTD/svg10.dtd">
<svg version="1.0" xmlns="http://www.w3.org/2000/svg"
 width="1050.000000pt" height="513.000000pt" viewBox="0 0 1050.000000 513.000000"
 preserveAspectRatio="xMidYMid meet">

<g transform="translate(0.000000,513.000000) scale(0.100000,-0.100000)"
fill="#fff" stroke="none">
<path d="M6648 4357 c-42 -30 -112 -85 -157 -121 -215 -177 -375 -271 -570
-335 -89 -30 -157 -45 -486 -106 -342 -64 -739 -249 -993 -465 -289 -245 -537
-733 -582 -1142 -11 -104 -12 -274 -1 -322 10 -50 29 -42 46 21 43 153 91 298
134 398 l46 110 6 -111 c8 -136 29 -238 69 -341 151 -392 544 -645 964 -620
352 21 658 220 818 533 45 87 45 97 -2 109 -22 5 -27 1 -42 -37 -25 -61 -106
-184 -162 -245 -97 -107 -268 -210 -422 -255 -68 -20 -102 -23 -244 -23 -151
0 -172 3 -250 27 -244 78 -443 244 -552 463 -43 86 -41 103 3 30 61 -99 196
-232 294 -289 44 -25 123 -61 175 -78 91 -31 102 -32 255 -33 190 0 242 11
390 84 116 57 210 131 282 223 50 62 133 202 133 224 0 6 -10 15 -23 21 -18 9
-28 7 -47 -9 -33 -27 -64 -20 -70 17 -4 23 -13 32 -44 44 -37 14 -39 14 -58
-10 -32 -38 -70 -59 -110 -59 -46 0 -55 13 -92 127 -24 72 -31 83 -58 92 -17
6 -35 11 -39 11 -14 0 -10 -102 6 -156 42 -141 199 -167 289 -49 34 44 46 44
46 2 0 -52 21 -72 73 -71 l45 1 -36 -59 c-266 -428 -857 -504 -1218 -156 -103
100 -157 180 -108 161 32 -12 114 19 154 58 l40 39 30 -21 c45 -34 170 -39
234 -10 47 20 48 20 74 2 62 -43 155 -34 219 22 55 48 83 117 83 204 0 70 -1
73 -30 88 -16 8 -32 15 -35 15 -3 0 -3 -42 1 -92 8 -111 -4 -165 -47 -207 -38
-38 -86 -48 -127 -27 -37 19 -58 51 -41 62 21 12 59 109 59 149 0 31 6 46 30
68 30 28 38 47 21 47 -5 0 -14 -7 -21 -15 -17 -20 -37 -19 -67 5 -14 11 -34
20 -44 20 -24 0 -46 74 -29 95 9 10 7 16 -9 24 -27 15 -41 14 -41 -4 0 -17
-30 -35 -60 -35 -20 0 -19 2 9 26 37 30 38 40 10 49 -16 5 -27 0 -43 -19 -11
-14 -33 -30 -47 -35 -39 -14 -70 22 -77 88 l-4 49 -72 32 c-39 18 -76 34 -82
37 -7 2 -25 -21 -42 -52 -25 -45 -28 -57 -16 -62 19 -7 39 10 54 47 7 17 16
30 21 30 5 0 9 -129 9 -287 0 -254 -2 -292 -18 -323 -33 -67 -112 -44 -112 32
0 31 -14 36 -37 13 -22 -22 -30 -12 -52 63 -54 183 -46 368 22 534 28 69 118
187 230 298 131 131 267 187 477 197 95 4 130 2 201 -15 158 -38 287 -111 396
-224 55 -58 123 -151 123 -169 0 -3 -22 -9 -49 -11 -67 -7 -144 -46 -211 -108
-30 -28 -56 -47 -57 -43 -25 74 -75 116 -160 133 -62 13 -105 9 -206 -21 -65
-19 -71 -19 -125 -4 -41 12 -65 26 -85 50 -52 63 -132 68 -207 14 -22 -16 -40
-28 -41 -27 0 2 -3 16 -5 33 -3 16 -7 31 -9 33 -8 8 -85 -42 -85 -55 0 -7 24
-24 52 -36 l53 -23 34 23 c34 23 95 31 105 14 3 -5 -6 -12 -20 -15 -39 -10
-77 -37 -66 -48 6 -6 22 -3 42 7 22 11 44 15 66 11 30 -6 33 -11 39 -50 5 -28
13 -46 23 -50 10 -3 23 -9 29 -12 8 -4 15 8 19 35 6 39 8 41 41 41 l34 0 -30
-37 c-17 -21 -31 -43 -31 -50 0 -25 25 -11 55 30 58 79 180 130 267 112 93
-20 148 -83 148 -170 0 -47 -26 -111 -54 -134 -22 -18 -20 -24 13 -44 38 -22
38 -23 45 18 4 20 18 57 32 82 13 25 24 53 24 62 0 9 20 41 44 72 81 104 211
147 287 96 42 -28 59 -62 66 -131 4 -40 1 -61 -15 -92 -22 -43 -88 -111 -98
-101 -3 3 -9 53 -11 111 -3 58 -9 106 -12 106 -4 0 -17 -7 -29 -16 -20 -14
-22 -23 -22 -125 0 -102 -1 -109 -20 -109 -11 0 -34 13 -52 29 -29 26 -33 35
-32 78 1 52 21 100 56 133 33 31 13 36 -26 7 -65 -51 -98 -171 -60 -225 21
-30 66 -52 106 -52 32 0 33 -2 32 -37 -2 -51 3 -60 37 -72 l29 -10 0 70 0 70
70 70 70 70 0 -88 c0 -48 -7 -117 -14 -153 -8 -36 -12 -68 -10 -71 2 -4 15 -9
28 -11 23 -5 26 -1 38 51 7 32 13 117 13 196 0 115 -4 154 -23 218 -59 205
-186 380 -357 491 -81 54 -78 59 9 15 228 -116 396 -326 468 -586 27 -98 31
-322 7 -419 l-16 -62 33 -10 c33 -10 34 -9 43 26 88 330 -14 697 -261 940
-187 184 -386 269 -658 281 l-135 6 86 32 c212 78 366 106 679 123 493 26 653
88 814 313 83 117 196 370 226 507 6 30 10 75 8 100 -5 67 -33 66 -130 -3z
m-2030 -1924 c36 -8 33 -17 -14 -40 l-44 -22 0 41 c0 34 3 39 18 33 9 -4 27
-10 40 -12z m182 -34 c0 -24 -10 -40 -41 -68 -31 -28 -42 -45 -46 -77 -8 -59
9 -84 55 -84 41 0 62 14 62 42 0 16 -3 16 -20 6 -52 -33 -81 51 -35 98 l26 26
28 -26 c16 -15 41 -30 57 -35 27 -7 29 -10 29 -61 l0 -53 -43 -15 c-43 -14
-43 -15 -37 -52 7 -39 1 -44 -73 -65 -42 -12 -119 14 -151 51 -100 113 -32
305 117 335 68 13 72 12 72 -22z"/>
<path d="M5165 2614 c-30 -39 -55 -110 -55 -154 0 -21 7 -31 30 -40 17 -7 32
-11 34 -9 2 2 0 27 -4 55 -9 58 -1 110 24 145 35 51 10 54 -29 3z"/>
<path d="M4917 2572 c-22 -24 -22 -44 -1 -40 24 4 41 35 28 48 -7 7 -16 5 -27
-8z"/>
<path d="M5610 1204 c-75 -70 -106 -175 -53 -182 17 -2 30 7 50 37 32 47 42
51 35 16 -6 -35 23 -44 51 -17 26 27 15 42 -13 17 -24 -22 -25 -14 -6 49 10
31 12 56 6 69 -8 21 -9 21 -10 2 0 -23 -95 -155 -110 -155 -14 0 -12 25 4 64
17 41 83 116 102 116 8 0 14 7 14 15 0 25 -19 17 -70 -31z"/>
<path d="M4895 1220 c-35 -23 -64 -59 -65 -79 0 -8 -11 -27 -25 -41 -46 -48
-30 -101 26 -87 26 7 131 96 113 97 -6 0 -19 -9 -30 -21 -22 -25 -66 -49 -89
-49 -44 0 12 78 72 101 13 5 23 13 23 19 0 13 -16 13 -41 0 -30 -17 -23 5 12
34 37 31 53 33 44 6 -3 -11 -2 -20 3 -20 11 0 23 40 16 52 -8 13 -27 9 -59
-12z"/>
<path d="M4474 1206 c-54 -25 -71 -41 -55 -51 6 -3 15 3 20 14 18 32 109 53
155 35 19 -7 21 -47 4 -62 -7 -6 -29 -12 -48 -14 -36 -3 -36 -3 -23 45 3 9 0
17 -6 17 -10 0 -81 -140 -81 -160 0 -24 22 -7 36 29 14 35 19 39 61 44 74 8
120 55 102 105 -7 19 -16 22 -61 22 -35 0 -71 -8 -104 -24z"/>
<path d="M5214 1221 c-40 -10 -56 -20 -49 -32 4 -5 15 -3 28 6 30 21 37 19 37
-9 0 -24 -23 -56 -40 -56 -5 0 -9 -12 -9 -27 1 -16 -2 -40 -6 -55 -5 -18 -3
-28 4 -28 6 0 11 9 11 19 0 37 22 33 69 -13 26 -25 52 -46 59 -46 27 0 9 30
-43 70 -33 26 -55 49 -53 59 2 10 26 22 67 32 149 39 76 116 -75 80z m104 -17
c31 -9 28 -20 -9 -33 -46 -16 -56 -14 -61 14 -5 22 -2 25 21 25 14 0 36 -3 49
-6z"/>
</g>
</svg>
